# xmcd
#
# Track frame offsets:
#	150
#	13718
#	23923
#	42077
#	55758
#	72919
#	84370
#	97328
#	106681
#	117900
#	133453
#	147369
#
# Disc length: 2139 seconds
#
# Revision: 0
# Processed by: cddbd v1.5.2PL0 Copyright (c) Steve Scherf et al.
# Submitted via: dBpowerAMP V4.0
#
DISCID=a408590c
DTITLE=Mel McDaniel - The Best of Mel McDaniel
DYEAR=2006
DGENRE=Country
TTITLE0=Baby's Got Her Blue Jeans On
TTITLE1=Louisiana Saturday Night
TTITLE2=C Mon Sixty-Five
TTITLE3=Louisiana Moon
TTITLE4=Mama's Bible
TTITLE5=Stand Up
TTITLE6=Big Ol Brew
TTITLE7=Let It Roll
TTITLE8=Stand On It
TTITLE9=Hello Daddy: Good Morning Darling
TTITLE10=Out Of The Question
TTITLE11=Inseparable
EXTD=
EXTT0=
EXTT1=
EXTT2=
EXTT3=
EXTT4=
EXTT5=
EXTT6=
EXTT7=
EXTT8=
EXTT9=
EXTT10=
EXTT11=
PLAYORDER=
